<svg xmlns="http://www.w3.org/2000/svg" version="1.1" xmlns:xlink="http://www.w3.org/1999/xlink" xmlns:svgjs="http://svgjs.com/svgjs" width="24" height="24"><svg xmlns="http://www.w3.org/2000/svg" width="24" height="24" viewBox="0 0 24 24" fill="none" stroke="currentColor" strokewidth="2" strokelinecap="round" strokelinejoin="round">
	<path d="M5 22h14"></path>
	<path d="M19.27 13.73A2.5 2.5 0 0 0 17.5 13h-11A2.5 2.5 0 0 0 4 15.5V17a1 1 0 0 0 1 1h14a1 1 0 0 0 1-1v-1.5c0-.66-.26-1.3-.73-1.77Z"></path>
	<path d="M14 13V8.5C14 7 15 7 15 5a3 3 0 0 0-3-3c-1.66 0-3 1-3 3s1 2 1 3.5V13"></path>
</svg><style>@media (prefers-color-scheme: light) { :root { filter: none; } }
@media (prefers-color-scheme: dark) { :root { filter: invert(100%); } }
</style></svg>